<?xml version="1.0" encoding="utf-8"?>
<!-- Generator: Adobe Illustrator 16.2.1, SVG Export Plug-In . SVG Version: 6.00 Build 0)  -->
<svg version="1.2" baseProfile="tiny" id="Layer_1" xmlns="http://www.w3.org/2000/svg" xmlns:xlink="http://www.w3.org/1999/xlink"
	 x="0px" y="0px" width="12px" height="14px" viewBox="0 0 12 14" xml:space="preserve">
<path fill="#FFFFFF" d="M9.574,9.145c-0.587,0-1.117,0.217-1.536,0.562L4.749,7.661C4.81,7.45,4.852,7.23,4.852,7
	c0-0.119-0.018-0.232-0.035-0.346l3.516-2.151c0.364,0.219,0.786,0.353,1.242,0.353C10.913,4.855,12,3.768,12,2.428
	C12,1.086,10.913,0,9.574,0c-1.34,0-2.425,1.086-2.425,2.428c0,0.175,0.021,0.346,0.056,0.511L3.814,5.014
	C3.421,4.737,2.943,4.572,2.426,4.572C1.086,4.572,0,5.659,0,7c0,1.34,1.086,2.428,2.426,2.428c0.395,0,0.762-0.104,1.091-0.271
	l3.647,2.27c-0.003,0.05-0.015,0.096-0.015,0.146c0,1.34,1.085,2.428,2.425,2.428C10.913,14,12,12.912,12,11.572
	C12,10.23,10.913,9.145,9.574,9.145z"/>
</svg>
